<?xml version="1.0" encoding="UTF-8" standalone="no"?>
<!DOCTYPE svg PUBLIC "-//W3C//DTD SVG 1.1//EN"
 "http://www.w3.org/Graphics/SVG/1.1/DTD/svg11.dtd">
<!-- Generated by graphviz version 2.38.0 (20140413.2041)
 -->
<!-- Title: %3 Pages: 1 -->
<svg width="408pt" height="332pt"
 viewBox="0.00 0.00 408.08 332.00" xmlns="http://www.w3.org/2000/svg" xmlns:xlink="http://www.w3.org/1999/xlink">
<g id="graph0" class="graph" transform="scale(1 1) rotate(0) translate(4 328)">
<title>%3</title>
<polygon fill="white" stroke="none" points="-4,4 -4,-328 404.083,-328 404.083,4 -4,4"/>
<!-- 5 -->
<g id="node1" class="node"><title>5</title>
<g id="a_node1"><a xlink:title="Write into salesforce object">
<polygon fill="none" stroke="red" points="274.791,-108 143.791,-108 143.791,-72 274.791,-72 274.791,-108"/>
<text text-anchor="middle" x="209.291" y="-86.3" font-family="Times,serif" font-size="14.00">dst:insert:NewObject</text>
</a>
</g>
</g>
<!-- 6 -->
<g id="node5" class="node"><title>6</title>
<g id="a_node5"><a xlink:title="List of ids as result of operation on Salesforce object">
<ellipse fill="none" stroke="black" cx="209.291" cy="-18" rx="102.082" ry="18"/>
<text text-anchor="middle" x="209.291" y="-14.3" font-family="Times,serif" font-size="14.00">New_Object_inserted_ids</text>
</a>
</g>
</g>
<!-- 5&#45;&gt;6 -->
<g id="edge4" class="edge"><title>5&#45;&gt;6</title>
<path fill="none" stroke="black" d="M209.291,-71.6966C209.291,-63.9827 209.291,-54.7125 209.291,-46.1124"/>
<polygon fill="black" stroke="black" points="212.791,-46.1043 209.291,-36.1043 205.791,-46.1044 212.791,-46.1043"/>
</g>
<!-- 3 -->
<g id="node2" class="node"><title>3</title>
<g id="a_node2"><a xlink:title="SELECT Id, &#160;AccountId FROM src.Accounts__c =&gt; csv:Accounts__c_src_id_accid">
<ellipse fill="none" stroke="black" cx="105.291" cy="-234" rx="105.082" ry="18"/>
<text text-anchor="middle" x="105.291" y="-230.3" font-family="Times,serif" font-size="14.00">Accounts__c_src_id_accid</text>
</a>
</g>
</g>
<!-- 4 -->
<g id="node6" class="node"><title>4</title>
<g id="a_node6"><a xlink:title="SELECT a.Id as AccountId, &#160;a.Name FROM csv.Account_scr_idname a INNER JOIN csv.Accounts__c_src_id_accid b ON b.AccountId = a.Id =&gt; csv:NewObjecT_insert =&gt; dst:insert:NewObject:10000:New_Object_inserted_ids">
<ellipse fill="none" stroke="black" cx="209.291" cy="-162" rx="77.1866" ry="18"/>
<text text-anchor="middle" x="209.291" y="-158.3" font-family="Times,serif" font-size="14.00">NewObjecT_insert</text>
</a>
</g>
</g>
<!-- 3&#45;&gt;4 -->
<g id="edge5" class="edge"><title>3&#45;&gt;4</title>
<path fill="none" stroke="black" d="M129.937,-216.411C143.896,-207.016 161.531,-195.146 176.63,-184.983"/>
<polygon fill="black" stroke="black" points="178.838,-187.716 185.18,-179.228 174.93,-181.909 178.838,-187.716"/>
</g>
<!-- 1 -->
<g id="node3" class="node"><title>1</title>
<g id="a_node3"><a xlink:title="SELECT Id, &#160;Name FROM src.Account =&gt; csv:Account_scr_idname">
<ellipse fill="none" stroke="black" cx="314.291" cy="-234" rx="85.5853" ry="18"/>
<text text-anchor="middle" x="314.291" y="-230.3" font-family="Times,serif" font-size="14.00">Account_scr_idname</text>
</a>
</g>
</g>
<!-- 1&#45;&gt;4 -->
<g id="edge6" class="edge"><title>1&#45;&gt;4</title>
<path fill="none" stroke="black" d="M289.673,-216.588C275.586,-207.197 257.728,-195.291 242.423,-185.088"/>
<polygon fill="black" stroke="black" points="244.016,-181.944 233.754,-179.309 240.133,-187.768 244.016,-181.944"/>
</g>
<!-- 0 -->
<g id="node4" class="node"><title>0</title>
<g id="a_node4"><a xlink:title="Read from salesforce object">
<polygon fill="none" stroke="green" points="355.291,-324 273.291,-324 273.291,-288 355.291,-288 355.291,-324"/>
<text text-anchor="middle" x="314.291" y="-302.3" font-family="Times,serif" font-size="14.00">src.Account</text>
</a>
</g>
</g>
<!-- 0&#45;&gt;1 -->
<g id="edge3" class="edge"><title>0&#45;&gt;1</title>
<path fill="none" stroke="black" d="M314.291,-287.697C314.291,-279.983 314.291,-270.712 314.291,-262.112"/>
<polygon fill="black" stroke="black" points="317.791,-262.104 314.291,-252.104 310.791,-262.104 317.791,-262.104"/>
</g>
<!-- 4&#45;&gt;5 -->
<g id="edge1" class="edge"><title>4&#45;&gt;5</title>
<path fill="none" stroke="black" d="M209.291,-143.697C209.291,-135.983 209.291,-126.712 209.291,-118.112"/>
<polygon fill="black" stroke="black" points="212.791,-118.104 209.291,-108.104 205.791,-118.104 212.791,-118.104"/>
</g>
<!-- 2 -->
<g id="node7" class="node"><title>2</title>
<g id="a_node7"><a xlink:title="Read from salesforce object">
<polygon fill="none" stroke="green" points="158.791,-324 51.7907,-324 51.7907,-288 158.791,-288 158.791,-324"/>
<text text-anchor="middle" x="105.291" y="-302.3" font-family="Times,serif" font-size="14.00">src.Accounts__c</text>
</a>
</g>
</g>
<!-- 2&#45;&gt;3 -->
<g id="edge2" class="edge"><title>2&#45;&gt;3</title>
<path fill="none" stroke="black" d="M105.291,-287.697C105.291,-279.983 105.291,-270.712 105.291,-262.112"/>
<polygon fill="black" stroke="black" points="108.791,-262.104 105.291,-252.104 101.791,-262.104 108.791,-262.104"/>
</g>
</g>
</svg>
